<svg width="32" height="32" viewBox="0 0 32 32" fill="none" xmlns="http://www.w3.org/2000/svg">
<g id="ar_on_you">
<mask id="mask0_0_131" style="mask-type:alpha" maskUnits="userSpaceOnUse" x="0" y="0" width="32" height="32">
<rect id="Bounding box" width="32" height="32" fill="#D9D9D9"/>
</mask>
<g mask="url(#mask0_0_131)">
<path id="ar_on_you_2" d="M15.998 6C18.7891 6 21.1538 6.96856 23.0923 8.90567C25.0307 10.8428 26 13.2068 26 15.9979C26 18.789 25.0314 21.1538 23.0943 23.0922C21.1572 25.0307 18.7931 25.9999 16.002 25.9999C13.2109 25.9999 10.8462 25.0314 8.90773 23.0943C6.96927 21.1572 6.00003 18.7931 6.00003 16.002C6.00003 13.2109 6.96859 10.8461 8.9057 8.9077C10.8428 6.96923 13.2069 6 15.998 6ZM16 24C18.2222 24 20.1111 23.2222 21.6667 21.6666C23.2222 20.1111 24 18.2222 24 16C24 13.7777 23.2222 11.8889 21.6667 10.3333C20.1111 8.77775 18.2222 7.99997 16 7.99997C13.7778 7.99997 11.8889 8.77775 10.3333 10.3333C8.77778 11.8889 8 13.7777 8 16C8 18.2222 8.77778 20.1111 10.3333 21.6666C11.8889 23.2222 13.7778 24 16 24ZM16 20.4102C16.7932 20.4102 17.5338 20.2273 18.2218 19.8615C18.9098 19.4957 19.4761 18.994 19.9205 18.3564C20.0453 18.129 20.044 17.9017 19.9167 17.6743C19.7893 17.447 19.5897 17.3333 19.3179 17.3333H12.6821C12.4103 17.3333 12.2107 17.447 12.0833 17.6743C11.956 17.9017 11.9547 18.129 12.0795 18.3564C12.5239 18.994 13.0902 19.4957 13.7782 19.8615C14.4662 20.2273 15.2068 20.4102 16 20.4102ZM11.5128 13.3356C11.5128 13.6776 11.6285 13.9636 11.86 14.1935C12.0914 14.4235 12.3781 14.5384 12.7202 14.5384C13.0623 14.5384 13.3483 14.4227 13.5782 14.1913C13.8081 13.9599 13.9231 13.6731 13.9231 13.331C13.9231 12.989 13.8074 12.703 13.576 12.4731C13.3445 12.2431 13.0578 12.1282 12.7157 12.1282C12.3736 12.1282 12.0876 12.2439 11.8577 12.4753C11.6278 12.7067 11.5128 12.9935 11.5128 13.3356ZM18.0769 13.3356C18.0769 13.6776 18.1926 13.9636 18.424 14.1935C18.6555 14.4235 18.9422 14.5384 19.2843 14.5384C19.6264 14.5384 19.9124 14.4227 20.1423 14.1913C20.3722 13.9599 20.4872 13.6731 20.4872 13.331C20.4872 12.989 20.3715 12.703 20.14 12.4731C19.9086 12.2431 19.6219 12.1282 19.2798 12.1282C18.9377 12.1282 18.6517 12.2439 18.4218 12.4753C18.1919 12.7067 18.0769 12.9935 18.0769 13.3356ZM2.9996 7.99997C2.71613 7.99997 2.47868 7.90413 2.28723 7.71247C2.09574 7.5208 2 7.28331 2 7V5.58973C2 4.59258 2.349 3.745 3.047 3.047C3.745 2.349 4.59258 2 5.58973 2H7C7.28331 2 7.5208 2.09588 7.71247 2.28763C7.90416 2.47939 8 2.71699 8 3.00043C8 3.2839 7.90417 3.52136 7.7125 3.7128C7.52083 3.90425 7.28334 3.99997 7.00003 3.99997H5.58977C5.13932 3.99997 4.76176 4.15232 4.45707 4.45703C4.15236 4.76172 4 5.13929 4 5.58973V7C4 7.28331 3.90412 7.5208 3.71237 7.71247C3.52063 7.90413 3.28307 7.99997 2.9996 7.99997ZM5.58977 29.9999C4.59261 29.9999 3.74503 29.6509 3.04703 28.9529C2.34903 28.2549 2.00003 27.4074 2.00003 26.4102V24.9999C2.00003 24.7166 2.09592 24.4791 2.2877 24.2875C2.47941 24.0958 2.71699 24 3.00043 24C3.2839 24 3.52136 24.0958 3.7128 24.2875C3.90427 24.4791 4 24.7166 4 24.9999V26.4102C4 26.8606 4.15236 27.2382 4.45707 27.5429C4.76176 27.8476 5.13932 28 5.58977 28H7.00003C7.28334 28 7.52083 28.0958 7.7125 28.2876C7.90417 28.4793 8 28.7169 8 29.0004C8 29.2838 7.90417 29.5213 7.7125 29.7127C7.52083 29.9042 7.28334 30 7.00003 30L5.58977 29.9999ZM25 29.8717C24.7167 29.8717 24.4792 29.7758 24.2875 29.5841C24.0958 29.3923 24 29.1547 24 28.8713C24 28.5879 24.0958 28.3504 24.2875 28.159C24.4792 27.9675 24.7167 27.8718 25 27.8718H26.4102C26.8607 27.8718 27.2382 27.7194 27.5429 27.4147C27.8476 27.11 28 26.7324 28 26.282V24.8717C28 24.5884 28.0959 24.3509 28.2876 24.1592C28.4794 23.9676 28.717 23.8718 29.0004 23.8718C29.2839 23.8718 29.5213 23.9676 29.7128 24.1592C29.9042 24.3509 30 24.5884 30 24.8717V26.282C30 27.2791 29.651 28.1267 28.953 28.8247C28.255 29.5227 27.4074 29.8717 26.4102 29.8717H25ZM28 7V5.58973C28 5.13929 27.8476 4.76172 27.5429 4.45703C27.2382 4.15232 26.8607 3.99997 26.4102 3.99997H25C24.7167 3.99997 24.4792 3.90409 24.2875 3.71233C24.0958 3.5206 24 3.283 24 2.99953C24 2.71609 24.0958 2.47865 24.2875 2.2872C24.4792 2.09573 24.7167 2 25 2H26.4102C27.4074 2 28.255 2.349 28.953 3.047C29.651 3.745 30 4.59258 30 5.58973V7C30 7.28331 29.9041 7.5208 29.7123 7.71247C29.5206 7.90413 29.283 7.99997 28.9995 7.99997C28.7161 7.99997 28.4786 7.90413 28.2872 7.71247C28.0957 7.5208 28 7.28331 28 7Z" fill="#888888"/>
</g>
</g>
</svg>
