<svg width="26" height="26" viewBox="0 0 26 26" fill="none" xmlns="http://www.w3.org/2000/svg">
<path d="M17.5411 11.405C18.0263 11.405 18.4377 11.2352 18.7753 10.8956C19.1129 10.556 19.2817 10.1436 19.2817 9.65839C19.2817 9.17324 19.1119 8.76186 18.7722 8.42426C18.4326 8.08666 18.0202 7.91786 17.5351 7.91786C17.0499 7.91786 16.6385 8.08767 16.3009 8.42729C15.9633 8.76689 15.7945 9.17928 15.7945 9.66446C15.7945 10.1496 15.9643 10.561 16.3039 10.8986C16.6436 11.2362 17.056 11.405 17.5411 11.405ZM8.46421 11.405C8.94936 11.405 9.36074 11.2352 9.69834 10.8956C10.036 10.556 10.2048 10.1436 10.2048 9.65839C10.2048 9.17324 10.035 8.76186 9.69534 8.42426C9.35572 8.08666 8.94333 7.91786 8.45817 7.91786C7.97302 7.91786 7.56163 8.08767 7.22401 8.42729C6.88641 8.76689 6.71761 9.17928 6.71761 9.66446C6.71761 10.1496 6.88742 10.561 7.22704 10.8986C7.56666 11.2362 7.97905 11.405 8.46421 11.405ZM13.0019 25.6614C11.25 25.6614 9.60325 25.3289 8.06174 24.6641C6.52021 23.9992 5.1793 23.0968 4.03901 21.9571C2.8987 20.8173 1.99595 19.4769 1.33077 17.9361C0.665597 16.3953 0.333008 14.7489 0.333008 12.997C0.333008 11.2451 0.665452 9.59837 1.33034 8.05686C1.99523 6.51533 2.89756 5.17442 4.03734 4.03413C5.17714 2.89382 6.51746 1.99107 8.05831 1.32589C9.59913 0.660715 11.2455 0.328125 12.9974 0.328125C14.7493 0.328125 16.396 0.660571 17.9375 1.32546C19.4791 1.99035 20.82 2.89268 21.9603 4.03246C23.1006 5.17226 24.0033 6.51258 24.6685 8.05343C25.3337 9.59425 25.6663 11.2406 25.6663 12.9925C25.6663 14.7444 25.3338 16.3911 24.6689 17.9327C24.0041 19.4742 23.1017 20.8151 21.9619 21.9554C20.8221 23.0957 19.4818 23.9984 17.941 24.6636C16.4002 25.3288 14.7538 25.6614 13.0019 25.6614ZM12.9996 23.6614C15.9774 23.6614 18.4996 22.6281 20.5663 20.5614C22.633 18.4948 23.6663 15.9725 23.6663 12.9948C23.6663 10.017 22.633 7.49476 20.5663 5.42809C18.4996 3.36143 15.9774 2.32809 12.9996 2.32809C10.0219 2.32809 7.49964 3.36143 5.43297 5.42809C3.36631 7.49476 2.33297 10.017 2.33297 12.9948C2.33297 15.9725 3.36631 18.4948 5.43297 20.5614C7.49964 22.6281 10.0219 23.6614 12.9996 23.6614ZM12.9996 14.9948C11.8184 14.9948 10.715 15.2781 9.68941 15.8448C8.66376 16.4114 7.83185 17.1911 7.19368 18.1839C7.06605 18.427 7.07254 18.6657 7.21314 18.8999C7.35374 19.134 7.56463 19.2511 7.84581 19.2511H18.1201C18.4013 19.2511 18.6122 19.134 18.7528 18.8999C18.8934 18.6657 18.8999 18.427 18.7723 18.1839C18.1341 17.1911 17.3057 16.4114 16.287 15.8448C15.2684 15.2781 14.1726 14.9948 12.9996 14.9948Z" fill="white"/>
</svg>
