<svg width="26" height="26" viewBox="0 0 26 26" fill="none" xmlns="http://www.w3.org/2000/svg">
<path d="M17.5415 11.4102C18.0266 11.4102 18.438 11.2404 18.7756 10.9008C19.1132 10.5612 19.282 10.1488 19.282 9.6636C19.282 9.17844 19.1122 8.76706 18.7726 8.42946C18.433 8.09186 18.0206 7.92306 17.5354 7.92306C17.0503 7.92306 16.6389 8.09287 16.3013 8.4325C15.9637 8.7721 15.7949 9.18448 15.7949 9.66966C15.7949 10.1548 15.9647 10.5662 16.3043 10.9038C16.6439 11.2414 17.0563 11.4102 17.5415 11.4102ZM8.46457 11.4102C8.94973 11.4102 9.36111 11.2404 9.69871 10.9008C10.0363 10.5612 10.2051 10.1488 10.2051 9.6636C10.2051 9.17844 10.0353 8.76706 9.69571 8.42946C9.35608 8.09186 8.9437 7.92306 8.45854 7.92306C7.97339 7.92306 7.562 8.09287 7.22437 8.4325C6.88677 8.7721 6.71797 9.18448 6.71797 9.66966C6.71797 10.1548 6.88778 10.5662 7.22741 10.9038C7.56703 11.2414 7.97942 11.4102 8.46457 11.4102ZM13.0022 25.6666C11.2503 25.6666 9.60362 25.3342 8.06211 24.6693C6.52057 24.0044 5.17966 23.102 4.03937 21.9623C2.89906 20.8225 1.99632 19.4821 1.33114 17.9413C0.665963 16.4005 0.333374 14.7541 0.333374 13.0022C0.333374 11.2503 0.665819 9.60357 1.33071 8.06206C1.9956 6.52053 2.89793 5.17962 4.03771 4.03933C5.17751 2.89902 6.51783 1.99627 8.05867 1.3311C9.5995 0.665919 11.2459 0.333328 12.9978 0.333328C14.7497 0.333328 16.3964 0.665774 17.9379 1.33066C19.4794 1.99555 20.8204 2.89788 21.9606 4.03766C23.101 5.17746 24.0037 6.51779 24.6689 8.05863C25.3341 9.59945 25.6666 11.2458 25.6666 12.9977C25.6666 14.7496 25.3342 16.3964 24.6693 17.9379C24.0044 19.4794 23.1021 20.8203 21.9623 21.9606C20.8225 23.1009 19.4822 24.0037 17.9413 24.6688C16.4005 25.334 14.7542 25.6666 13.0022 25.6666ZM13 23.6666C15.9778 23.6666 18.5 22.6333 20.5667 20.5666C22.6333 18.5 23.6667 15.9777 23.6667 13C23.6667 10.0222 22.6333 7.49996 20.5667 5.4333C18.5 3.36663 15.9778 2.3333 13 2.3333C10.0222 2.3333 7.50001 3.36663 5.43334 5.4333C3.36667 7.49996 2.33334 10.0222 2.33334 13C2.33334 15.9777 3.36667 18.5 5.43334 20.5666C7.50001 22.6333 10.0222 23.6666 13 23.6666ZM13 19.923C14.1967 19.923 15.3006 19.6397 16.3116 19.073C17.3227 18.5064 18.1437 17.7376 18.7748 16.7666C18.901 16.5239 18.897 16.2799 18.7628 16.0346C18.6286 15.7893 18.4188 15.6666 18.1333 15.6666H7.86671C7.58124 15.6666 7.37141 15.7893 7.23721 16.0346C7.10303 16.2799 7.09904 16.5239 7.22524 16.7666C7.85631 17.7376 8.68251 18.5064 9.70384 19.073C10.7252 19.6397 11.8239 19.923 13 19.923Z" fill="white"/>
</svg>
